<?xml version="1.0" encoding="utf-8"?><svg viewBox="0 0 100 100" xmlns="http://www.w3.org/2000/svg" width="200px" height="200px" xmlns:xlink="http://www.w3.org/1999/xlink" style="width:100%;height:100%;background-size:initial;background-repeat-y:initial;background-repeat-x:initial;background-position-y:initial;background-position-x:initial;background-origin:initial;background-color:initial;background-clip:initial;background-attachment:initial;animation-play-state:paused" ><g class="ldl-scale" style="transform-origin:50% 50%;transform:rotate(0deg) scale(0.8, 0.8);animation-play-state:paused" ><g style="animation-play-state:paused" ><ellipse fill="#333" ry="9.5" rx="14.3" cy="74.1" cx="43.6" transform="rotate(-30 43.573 74.065)" style="fill:rgb(255, 255, 255);animation-play-state:paused" ></ellipse></g>
<g style="animation-play-state:paused" ><path fill="#333" d="M56.8 15c0 .8 0 1.6.4 2.3.2.4.2.7.5 1.1.2.3.5.6.7.9.6.6 1 1.2 1.6 1.7.6.5 1.1 1.1 1.6 1.8 1.9 2.6 4.2 5.4 6.1 8.6 1 1.6 1.7 3.4 2.4 5.1.3.9.6 1.8.7 2.8l.2 1.4c0 .5.1.9.1 1.4.1 1.9-.2 3.9-.8 5.6-.3.9-.7 1.7-1 2.5-.4.8-.6 1.6-1.2 2.3-.2.3-.6.3-.9.1-.1-.1-.2-.3-.2-.4-.1-1 .3-1.8.5-2.7.3-.8.5-1.6.7-2.4.4-1.6.5-3.1.2-4.7-.1-.4-.2-.8-.2-1.2l-.4-1.1c-.2-.8-.6-1.5-.9-2.2-.8-1.4-1.7-2.7-2.8-3.9-2.1-2.5-4.7-4.7-7.1-7.6-.6-.7-1.1-1.6-1.4-2.5-.4-.9-.7-1.9-.9-2.9-.3-2-.5-3.9-.7-5.9-.1-.8.5-1.6 1.3-1.6.8-.1 1.6.5 1.6 1.3v.1l-.1.1z" style="fill:rgb(255, 255, 255);animation-play-state:paused" ></path></g>
<path d="M55.3 68.7V15" stroke-miterlimit="10" stroke-linejoin="round" stroke-linecap="round" stroke-width="3" stroke="#333" fill="none" style="stroke:rgb(255, 255, 255);animation-play-state:paused" ></path>
<g style="animation-play-state:paused" ><path fill="#333" d="M56.8 29c0 .8 0 1.6.4 2.3.2.4.2.7.5 1.1.2.3.5.6.7.9.6.6 1 1.2 1.6 1.7.6.5 1.1 1.1 1.6 1.8 1.9 2.6 4.2 5.4 6.1 8.6 1 1.6 1.7 3.4 2.4 5.1.3.9.6 1.8.7 2.8l.2 1.4c0 .5.1.9.1 1.4.1 1.9-.2 3.9-.8 5.6-.3.9-.7 1.7-1 2.5-.4.8-.6 1.6-1.2 2.3-.2.3-.6.3-.9.1-.1-.1-.2-.3-.2-.4-.1-1 .3-1.8.5-2.7.3-.8.5-1.6.7-2.4.4-1.6.5-3.1.2-4.7-.1-.4-.2-.8-.2-1.2l-.4-1.1c-.2-.8-.6-1.5-.9-2.2-.8-1.4-1.7-2.7-2.8-3.9-2.1-2.5-4.7-4.7-7.1-7.6-.6-.7-1.1-1.6-1.4-2.5-.4-.9-.7-1.9-.9-2.9-.3-2-.5-3.9-.7-5.9-.1-.8.5-1.6 1.3-1.6.8-.1 1.6.5 1.6 1.3v.1l-.1.1z" style="fill:rgb(255, 255, 255);animation-play-state:paused" ></path></g>
<metadata xmlns:d="https://loading.io/stock/" style="animation-play-state:paused" ><d:name style="animation-play-state:paused" >note</d:name>


<d:tags style="animation-play-state:paused" >note,sixteenth,semiquarver,music</d:tags>


<d:license style="animation-play-state:paused" >by</d:license>


<d:slug style="animation-play-state:paused" >1lpjlt</d:slug></metadata></g><!-- generated by https://loading.io/ --></svg>